# xmcd
#
# Track frame offsets:
#	150
#	16503
#	30188
#	43800
#	57943
#	70665
#	84728
#	97850
#	112468
#	127368
#	141118
#	154320
#	168738
#	181235
#
# Disc length: 2586 seconds
#
# Revision: 3
# Processed by: cddbd v1.5.2PL0 Copyright (c) Steve Scherf et al.
# Submitted via: audiograbber 1.83.01
#
DISCID=be0a180e
DTITLE=Tom Astor - Allzeit gute Fahrt
DYEAR=1992
DGENRE=Deutsch Country
TTITLE0=Und ich seh' die Trucks vorrüberzieh'n
TTITLE1=Pleite (Ich bin pleite)
TTITLE2=Ich trinke noch ein Glas mit meinen Freunden
TTITLE3=Mit dem Truck durch Texas fahr'n
TTITLE4=Ich freu' mich auf zu Hause
TTITLE5=Das Glück hat ihn nie geliebt
TTITLE6=Komm' nach Haus
TTITLE7=Ein Grabstein überall
TTITLE8=Dies Lied ist für die Mädchen
TTITLE9=Nimm dir Zeit
TTITLE10=Auch wenn ich mal das Handtuch werfe
TTITLE11=Das letzte Hemd hat keine Taschen
TTITLE12=Ich habe jetzt die Nase voll
TTITLE13=Und so bin ich auf den Hund gekommen
EXTD=14 neue Dieselsongs\nElectrola\n1992 AMC Records and Tapes\n1C 566-0777 7 99
EXTD=686 2 6 \n1C 266-0777 7 99686 4 0
EXTT0=3´33 min
EXTT1=2´58 min
EXTT2=
EXTT3=
EXTT4=
EXTT5=
EXTT6=
EXTT7=
EXTT8=
EXTT9=
EXTT10=
EXTT11=
EXTT12=
EXTT13=
PLAYORDER=
